<svg xmlns="http://www.w3.org/2000/svg" viewBox="0 0 112 112" shape-rendering="crispEdges"><rect width="112" height="112" rx="16" fill="#0d1117"/><rect x="28" y="24" width="8" height="8" fill="#39d353"/><rect x="76" y="24" width="8" height="8" fill="#39d353"/><rect x="36" y="32" width="8" height="8" fill="#39d353"/><rect x="68" y="32" width="8" height="8" fill="#39d353"/><rect x="28" y="40" width="8" height="8" fill="#39d353"/><rect x="36" y="40" width="8" height="8" fill="#39d353"/><rect x="44" y="40" width="8" height="8" fill="#39d353"/><rect x="52" y="40" width="8" height="8" fill="#39d353"/><rect x="60" y="40" width="8" height="8" fill="#39d353"/><rect x="68" y="40" width="8" height="8" fill="#39d353"/><rect x="76" y="40" width="8" height="8" fill="#39d353"/><rect x="20" y="48" width="8" height="8" fill="#39d353"/><rect x="28" y="48" width="8" height="8" fill="#39d353"/><rect x="44" y="48" width="8" height="8" fill="#39d353"/><rect x="52" y="48" width="8" height="8" fill="#39d353"/><rect x="60" y="48" width="8" height="8" fill="#39d353"/><rect x="76" y="48" width="8" height="8" fill="#39d353"/><rect x="84" y="48" width="8" height="8" fill="#39d353"/><rect x="12" y="56" width="8" height="8" fill="#39d353"/><rect x="20" y="56" width="8" height="8" fill="#39d353"/><rect x="28" y="56" width="8" height="8" fill="#39d353"/><rect x="36" y="56" width="8" height="8" fill="#39d353"/><rect x="44" y="56" width="8" height="8" fill="#39d353"/><rect x="52" y="56" width="8" height="8" fill="#39d353"/><rect x="60" y="56" width="8" height="8" fill="#39d353"/><rect x="68" y="56" width="8" height="8" fill="#39d353"/><rect x="76" y="56" width="8" height="8" fill="#39d353"/><rect x="84" y="56" width="8" height="8" fill="#39d353"/><rect x="92" y="56" width="8" height="8" fill="#39d353"/><rect x="12" y="64" width="8" height="8" fill="#39d353"/><rect x="28" y="64" width="8" height="8" fill="#39d353"/><rect x="36" y="64" width="8" height="8" fill="#39d353"/><rect x="44" y="64" width="8" height="8" fill="#39d353"/><rect x="52" y="64" width="8" height="8" fill="#39d353"/><rect x="60" y="64" width="8" height="8" fill="#39d353"/><rect x="68" y="64" width="8" height="8" fill="#39d353"/><rect x="76" y="64" width="8" height="8" fill="#39d353"/><rect x="92" y="64" width="8" height="8" fill="#39d353"/><rect x="12" y="72" width="8" height="8" fill="#39d353"/><rect x="28" y="72" width="8" height="8" fill="#39d353"/><rect x="76" y="72" width="8" height="8" fill="#39d353"/><rect x="92" y="72" width="8" height="8" fill="#39d353"/><rect x="36" y="80" width="8" height="8" fill="#39d353"/><rect x="44" y="80" width="8" height="8" fill="#39d353"/><rect x="60" y="80" width="8" height="8" fill="#39d353"/><rect x="68" y="80" width="8" height="8" fill="#39d353"/></svg>